Coordinates
version=1
nRows=9
nColumns=42
inDegrees=yes

Units are S.I. units (second, meters, Newtons, ...)
If the header above contains a line with 'inDegrees', this indicates whether rotational values are in degrees (yes) or radians (no).

endheader
time	pelvis_tilt	pelvis_list	pelvis_rotation	pelvis_tx	pelvis_ty	pelvis_tz	hip_flexion_r	hip_adduction_r	hip_rotation_r	knee_angle_r	knee_adduction_r	knee_angle_r_beta	ankle_angle_r	subtalar_angle_r	mtp_angle_r	hip_flexion_l	hip_adduction_l	hip_rotation_l	knee_angle_l	knee_adduction_l	knee_angle_l_beta	ankle_angle_l	subtalar_angle_l	mtp_angle_l	lumbar_extension	lumbar_bending	lumbar_rotation	arm_flex_r	arm_add_r	arm_rot_r	elbow_flex_r	pro_sup_r	wrist_flex_r	wrist_dev_r	arm_flex_l	arm_add_l	arm_rot_l	elbow_flex_l	pro_sup_l	wrist_flex_l	wrist_dev_l
      0.98000000	     -0.06591334	      2.32453052	      0.90712010	     -0.95172515	      0.89062546	     -0.22339586	     -2.43249810	    -12.55135617	     -1.70579525	     53.87112128	     12.10316333	      0.94022844	     -5.70767253	     -3.28583726	     -7.58528224	     14.06600849	     -3.29986594	     -3.63442778	     18.62764380	     16.53343129	      0.32511372	      6.52061782	     -1.01506440	     -7.58528224	    -13.89801605	     -1.74994347	      1.77239814	     -1.22899709	    -13.88836708	     -3.57353139	     17.92279044	     90.00000001	      0.00000000	      0.00000000	     -9.41231726	     -8.39716709	      0.30233434	     19.63319737	     90.00000001	      0.00000000	      0.00000000
      0.99000000	      0.05120397	      2.03138456	      0.96901555	     -0.94105343	      0.89257478	     -0.22422874	     -0.79195166	    -12.10015949	     -1.48881805	     55.50936750	     11.64649991	      0.96882123	     -4.11044266	     -4.12881281	     -7.58393683	     12.91145833	     -3.55639150	     -3.57689853	     18.14405491	     16.57546072	      0.31667350	      7.00610737	     -0.44770321	     -7.58393683	    -14.06818146	     -1.35722850	      1.60791279	     -1.25028735	    -13.88366841	     -3.57653380	     17.89857879	     90.00000001	      0.00000000	      0.00000000	     -9.03713701	     -8.59870104	      0.24912253	     19.90359123	     90.00000001	      0.00000000	      0.00000000
      1.00000000	      0.01458192	      1.74303364	      0.95693490	     -0.93031207	      0.89425029	     -0.22489231	      1.01397086	    -11.64012323	     -1.44433497	     56.85941360	     11.07707606	      0.99238398	     -2.23388380	     -4.98517102	     -7.58254081	     11.80045515	     -3.87125337	     -3.58248963	     17.43558251	     16.70787786	      0.30430832	      7.54368782	      0.17428838	     -7.58254081	    -14.02837176	     -0.98185878	      1.51993234	     -1.30969009	    -13.89718832	     -3.60196867	     17.80745199	     90.00000001	      0.00000000	      0.00000000	     -8.71877686	     -8.83621080	      0.17007414	     20.15228524	     90.00000001	      0.00000000	      0.00000000
      1.01000000	      0.05844532	      1.41035601	      1.09770938	     -0.91966966	      0.89596038	     -0.22590422	      2.61223487	    -11.20974234	     -1.56536658	     57.82213127	     10.72252018	      1.00918657	     -0.59033444	     -5.50181161	     -7.58136647	     10.68974058	     -4.15718571	     -3.58875285	     16.86844515	     16.70206019	      0.29440991	      7.93998785	      0.69181632	     -7.58136647	    -14.08653206	     -0.49044577	      1.22522631	     -1.32365989	    -13.94990965	     -3.65249540	     17.79577584	     90.00000001	      0.00000000	      0.00000000	     -8.40248685	     -9.02541967	      0.12158831	     20.39825340	     90.00000001	      0.00000000	      0.00000000
      1.02000000	      0.02793046	      1.08267572	      1.22733280	     -0.90882576	      0.89744165	     -0.22658445	      4.22050965	    -10.71455662	     -1.88875655	     58.44549133	     10.20258789	      1.02006626	      1.44077644	     -6.00502924	     -7.58008407	      9.53571962	     -4.51298746	     -3.48947481	     16.04918303	     16.85398718	      0.28011109	      8.45994359	      1.36560889	     -7.58008407	    -14.01279848	     -0.04190402	      1.01520027	     -1.40761230	    -13.93003079	     -3.73158529	     17.67520681	     90.00000001	      0.00000000	      0.00000000	     -8.11120521	     -9.29425625	      0.04647420	     20.63979661	     90.00000001	      0.00000000	      0.00000000
      1.03000000	      0.08307428	      0.71218994	      1.53451091	     -0.89780044	      0.89891094	     -0.22757797	      5.56311479	    -10.24778767	     -2.42979063	     58.65426368	      9.84634619	      1.02371002	      3.24322636	     -6.15418385	     -7.57868080	      8.30777121	     -4.88178321	     -3.29026238	     15.24632148	     16.97665374	      0.26609851	      8.96272993	      2.05226488	     -7.57868080	    -13.99508069	      0.51564157	      0.60999370	     -1.50280838	    -13.92071544	     -3.87556650	     17.57380176	     90.00000001	      0.00000000	      0.00000000	     -7.86026436	     -9.51799190	     -0.00562021	     20.88379976	     90.00000001	      0.00000000	      0.00000000
      1.04000000	      0.19944084	      0.33038278	      1.98690453	     -0.88669425	      0.90030732	     -0.22871834	      6.68680640	     -9.81236770	     -3.13606263	     58.45489722	      9.60077062	      1.02023042	      4.95511956	     -6.16725184	     -7.57736344	      7.06473398	     -5.23524337	     -3.03822697	     14.50259585	     17.01573209	      0.25311805	      9.44843714	      2.71210413	     -7.57736344	    -14.02406645	      1.11833473	      0.04773744	     -1.60156786	    -13.90280166	     -4.03980850	     17.50373096	     90.00000001	      0.00000000	      0.00000000	     -7.62977520	     -9.76045643	     -0.02731180	     21.12475483	     90.00000001	      0.00000000	      0.00000000
      1.05000000	      0.86784628	     -0.25456753	      2.77702952	     -0.87484638	      0.90231370	     -0.22994130	      6.83077619	     -9.13231472	     -4.74415605	     57.59991398	      9.02205829	      1.00530815	      6.46598880	     -5.14806688	     -7.57388295	      5.05046150	     -5.92534750	     -2.28982940	     13.33997550	     17.28676545	      0.23282649	     10.01059537	      3.46097639	     -7.57388295	    -14.57636557	      2.00291674	     -0.75761074	     -1.68541082	    -13.83113365	     -4.56670535	     17.39639950	     90.00000001	      0.00000000	      0.00000000	     -7.41818849	    -10.05696923	      0.00117799	     21.46576790	     90.00000001	      0.00000000	      0.00000000
      1.06000000	      1.01065154	     -0.62056044	      3.51584498	     -0.86350062	      0.90331970	     -0.23141581	      7.67879529	     -8.84001031	     -5.67786194	     56.79061353	      9.06717044	      0.99118319	      7.99915641	     -5.05307838	     -7.57191526	      3.84622006	     -6.29086255	     -1.81765817	     12.62741865	     17.33754035	      0.22039003	     10.52025049	      4.04059307	     -7.57191526	    -14.55007449	      2.65473207	     -1.57873999	     -1.85697156	    -13.79803453	     -4.74302285	     17.32650021	     90.00000001	      0.00000000	      0.00000000	     -7.23134648	    -10.32457998	      0.06336025	     21.69016116	     90.00000001	      0.00000000	      0.00000000
